<svg width="80" height="81" viewBox="0 0 80 81" fill="none" xmlns="http://www.w3.org/2000/svg">
<rect y="0.231201" width="80" height="80" rx="10" fill="#383E45"/>
<path d="M24.853 57.0327L21.4825 19.2312H58.5175L55.1425 57.0267L39.9775 61.2312L24.853 57.0327Z" fill="#E44F26"/>
<path d="M40 58.0182L52.255 54.6207L55.138 22.3227H40V58.0182Z" fill="#F1662A"/>
<path d="M40 36.3417H33.865L33.442 31.5942H40V26.9577H28.375L28.486 28.2027L29.6245 40.9782H40V36.3417ZM40 48.3822L39.979 48.3882L34.816 46.9947L34.486 43.2972H29.8315L30.481 50.5752L39.979 53.2122L40 53.2062V48.3822Z" fill="#EBEBEB"/>
<path d="M39.9835 36.3417V40.9782H45.6925L45.1555 46.9917L39.9835 48.3867V53.2107L49.489 50.5752L49.558 49.7922L50.647 37.5867L50.761 36.3417H39.9835ZM39.9835 26.9577V31.5942H51.1825L51.2755 30.5532L51.487 28.2027L51.598 26.9577H39.9835Z" fill="white"/>
</svg>
