<svg width="80" height="81" viewBox="0 0 80 81" fill="none" xmlns="http://www.w3.org/2000/svg">
<rect y="0.231201" width="80" height="80" rx="10" fill="#383E45"/>
<g clip-path="url(#clip0_6_167)">
<path d="M16 16.2312H64V64.2312H16V16.2312Z" fill="#F7DF1E"/>
<path d="M28.621 56.3435L32.2942 54.1205C33.0029 55.3769 33.6475 56.44 35.1938 56.44C36.676 56.44 37.6107 55.8603 37.6107 53.605V38.2679H42.1214V53.6688C42.1214 58.3407 39.3828 60.4673 35.3872 60.4673C31.7787 60.4673 29.6842 58.5985 28.6208 56.3431L28.621 56.3435ZM44.5715 55.8601L48.2442 53.7336C49.2112 55.3126 50.4678 56.4725 52.6908 56.4725C54.56 56.4725 55.7517 55.5379 55.7517 54.2491C55.7517 52.7026 54.5273 52.1547 52.4652 51.2528L51.3378 50.7691C48.0833 49.384 45.9247 47.644 45.9247 43.9709C45.9247 40.5876 48.5022 38.0099 52.5299 38.0099C55.3975 38.0099 57.4597 39.0089 58.9417 41.6187L55.4294 43.8743C54.656 42.4889 53.8186 41.9412 52.5297 41.9412C51.2086 41.9412 50.3708 42.7789 50.3708 43.8743C50.3708 45.2275 51.2086 45.7756 53.1417 46.6133L54.2693 47.0965C58.1037 48.74 60.2624 50.4153 60.2624 54.1848C60.2624 58.2449 57.0727 60.4679 52.7873 60.4679C48.5988 60.4679 45.8922 58.4703 44.5713 55.8603" fill="black"/>
</g>
<defs>
<clipPath id="clip0_6_167">
<rect width="48" height="48" fill="white" transform="translate(16 16.2312)"/>
</clipPath>
</defs>
</svg>
