<svg width="80" height="81" viewBox="0 0 80 81" fill="none" xmlns="http://www.w3.org/2000/svg">
<rect y="0.231201" width="80" height="80" rx="10" fill="#383E45"/>
<g clip-path="url(#clip0_204_7)">
<path d="M39.8901 16.2448C27.6864 16.2448 28.4484 21.537 28.4484 21.537L28.462 27.0199H40.1077V28.666H23.8365C23.8365 28.666 16.0273 27.7804 16.0273 40.0938C16.0273 52.4076 22.8433 51.9709 22.8433 51.9709H26.9111V46.2568C26.9111 46.2568 26.6918 39.4408 33.6183 39.4408H45.1688C45.1688 39.4408 51.6582 39.5456 51.6582 33.169V22.6255C51.6582 22.6255 52.6438 16.2448 39.8901 16.2448ZM33.4687 19.9319C33.7439 19.9317 34.0164 19.9857 34.2707 20.0909C34.525 20.1961 34.7561 20.3504 34.9506 20.545C35.1452 20.7396 35.2995 20.9706 35.4047 21.2249C35.5099 21.4792 35.564 21.7518 35.5637 22.027C35.564 22.3022 35.5099 22.5747 35.4047 22.829C35.2995 23.0833 35.1452 23.3144 34.9506 23.5089C34.7561 23.7035 34.525 23.8578 34.2707 23.963C34.0164 24.0682 33.7439 24.1223 33.4687 24.122C33.1935 24.1223 32.9209 24.0682 32.6666 23.963C32.4123 23.8578 32.1813 23.7035 31.9867 23.5089C31.7921 23.3144 31.6378 23.0833 31.5326 22.829C31.4274 22.5747 31.3734 22.3022 31.3736 22.027C31.3734 21.7518 31.4274 21.4792 31.5326 21.2249C31.6378 20.9706 31.7921 20.7396 31.9867 20.545C32.1813 20.3504 32.4123 20.1961 32.6666 20.0909C32.9209 19.9857 33.1935 19.9317 33.4687 19.9319Z" fill="url(#paint0_linear_204_7)"/>
<path d="M40.2366 64.0667C52.4403 64.0667 51.6783 58.7744 51.6783 58.7744L51.6648 53.2917H40.0188V51.6456H56.2901C56.2901 51.6456 64.0992 52.5312 64.0992 40.2174C64.0992 27.9038 57.2832 28.3405 57.2832 28.3405H53.2154V34.0544C53.2154 34.0544 53.4347 40.8704 46.5082 40.8704H34.9577C34.9577 40.8704 28.4683 40.7656 28.4683 47.1424V57.686C28.4683 57.686 27.4829 64.0667 40.2364 64.0667H40.2366ZM46.6581 60.3799C46.3829 60.3801 46.1103 60.3261 45.856 60.2209C45.6017 60.1157 45.3707 59.9614 45.1761 59.7668C44.9815 59.5722 44.8272 59.3411 44.722 59.0869C44.6168 58.8326 44.5628 58.56 44.563 58.2848C44.5627 58.0096 44.6168 57.737 44.7219 57.4827C44.8271 57.2284 44.9814 56.9973 45.176 56.8027C45.3706 56.6081 45.6017 56.4538 45.856 56.3486C46.1103 56.2433 46.3829 56.1893 46.6581 56.1896C46.9333 56.1893 47.2058 56.2433 47.4601 56.3485C47.7144 56.4537 47.9455 56.6081 48.1401 56.8026C48.3347 56.9972 48.489 57.2283 48.5942 57.4826C48.6994 57.7369 48.7534 58.0094 48.7531 58.2846C48.7534 58.5598 48.6994 58.8324 48.5942 59.0867C48.489 59.341 48.3347 59.572 48.1401 59.7666C47.9455 59.9612 47.7144 60.1155 47.4601 60.2207C47.2058 60.3259 46.9333 60.3799 46.6581 60.3797V60.3799Z" fill="url(#paint1_linear_204_7)"/>
</g>
<defs>
<linearGradient id="paint0_linear_204_7" x1="20.647" y1="20.546" x2="44.47" y2="44.1314" gradientUnits="userSpaceOnUse">
<stop stop-color="#387EB8"/>
<stop offset="1" stop-color="#366994"/>
</linearGradient>
<linearGradient id="paint1_linear_204_7" x1="35.2695" y1="35.6911" x2="60.8527" y2="59.8757" gradientUnits="userSpaceOnUse">
<stop stop-color="#FFE052"/>
<stop offset="1" stop-color="#FFC331"/>
</linearGradient>
<clipPath id="clip0_204_7">
<rect width="48.1882" height="48" fill="white" transform="translate(16 16.2312)"/>
</clipPath>
</defs>
</svg>
