<svg width="80" height="81" viewBox="0 0 80 81" fill="none" xmlns="http://www.w3.org/2000/svg">
<rect y="0.231201" width="80" height="80" rx="10" fill="#383E45"/>
<g clip-path="url(#clip0_204_10)">
<path fill-rule="evenodd" clip-rule="evenodd" d="M40 16.2312C26.74 16.2312 16 26.9712 16 40.2312C16 50.8512 22.87 59.8212 32.41 63.0012C33.61 63.2112 34.06 62.4912 34.06 61.8612C34.06 61.2912 34.03 59.4012 34.03 57.3912C28 58.5012 26.44 55.9212 25.96 54.5712C25.69 53.8812 24.52 51.7512 23.5 51.1812C22.66 50.7312 21.46 49.6212 23.47 49.5912C25.36 49.5612 26.71 51.3312 27.16 52.0512C29.32 55.6812 32.77 54.6612 34.15 54.0312C34.36 52.4712 34.99 51.4212 35.68 50.8212C30.34 50.2212 24.76 48.1512 24.76 38.9712C24.76 36.3612 25.69 34.2012 27.22 32.5212C26.98 31.9212 26.14 29.4612 27.46 26.1612C27.46 26.1612 29.47 25.5312 34.06 28.6212C35.98 28.0812 38.02 27.8112 40.06 27.8112C42.1 27.8112 44.14 28.0812 46.06 28.6212C50.65 25.5012 52.66 26.1612 52.66 26.1612C53.98 29.4612 53.14 31.9212 52.9 32.5212C54.43 34.2012 55.36 36.3312 55.36 38.9712C55.36 48.1812 49.75 50.2212 44.41 50.8212C45.28 51.5712 46.03 53.0112 46.03 55.2612C46.03 58.4712 46 61.0512 46 61.8612C46 62.4912 46.45 63.2412 47.65 63.0012C52.4144 61.3926 56.5544 58.3306 59.4873 54.2459C62.4203 50.1613 63.9986 45.2598 64 40.2312C64 26.9712 53.26 16.2312 40 16.2312Z" fill="white"/>
</g>
<defs>
<clipPath id="clip0_204_10">
<rect width="48" height="48" fill="white" transform="translate(16 16.2312)"/>
</clipPath>
</defs>
</svg>
