<svg width="80" height="81" viewBox="0 0 80 81" fill="none" xmlns="http://www.w3.org/2000/svg">
<rect y="0.231201" width="80" height="80" rx="10" fill="#383E45"/>
<g clip-path="url(#clip0_204_6)">
<path d="M16 39.2312V63.2312H64V15.2312H16V39.2312Z" fill="#007ACC"/>
<path d="M26.6147 39.3906L26.5995 41.3561H32.847V59.1086H37.266V41.3561H43.5137V39.4286C43.5137 38.3618 43.4909 37.4704 43.4605 37.4475C43.4376 37.4171 39.6355 37.4018 35.0262 37.4094L26.6374 37.4323L26.6147 39.3904V39.3906ZM54.7313 37.3764C55.9502 37.6811 56.8799 38.2221 57.7332 39.1059C58.1751 39.5784 58.8302 40.4393 58.8837 40.6449C58.8987 40.7059 56.8112 42.1078 55.5465 42.8927C55.5008 42.9231 55.3178 42.7251 55.1121 42.4202C54.495 41.5211 53.8474 41.1326 52.8569 41.064C51.4019 40.965 50.4645 41.7268 50.4722 42.9992C50.4722 43.3727 50.5255 43.5936 50.6779 43.8983C50.998 44.5613 51.5922 44.9574 53.4589 45.765C56.895 47.2431 58.3654 48.2183 59.2799 49.605C60.3008 51.1517 60.5294 53.6203 59.836 55.4565C59.0742 57.4526 57.1847 58.8088 54.5254 59.2583C53.7027 59.403 51.7523 59.3801 50.8684 59.2202C48.9409 58.8774 47.1122 57.9249 45.9846 56.6754C45.5427 56.1879 44.6817 54.9154 44.7351 54.8241C44.758 54.7935 44.956 54.6716 45.1769 54.5421C45.3902 54.4202 46.198 53.9554 46.9598 53.5136L48.3389 52.7136L48.6284 53.1403C49.0322 53.7572 49.9159 54.603 50.4494 54.885C51.9807 55.6926 54.0837 55.5784 55.1198 54.6488C55.5617 54.2451 55.7445 53.826 55.7445 53.2088C55.7445 52.6526 55.6759 52.4089 55.3864 51.9898C55.0133 51.4564 54.2513 51.0069 52.0874 50.0698C49.6112 49.0029 48.5445 48.3403 47.5694 47.2888C47.0055 46.6794 46.4721 45.7041 46.2512 44.8888C46.0684 44.2106 46.0225 42.5117 46.1674 41.826C46.678 39.4335 48.4836 37.7649 51.0893 37.2698C51.9349 37.1098 53.9007 37.1708 54.7313 37.3764Z" fill="white"/>
</g>
<defs>
<clipPath id="clip0_204_6">
<rect width="48" height="48" fill="white" transform="translate(16 15.2312)"/>
</clipPath>
</defs>
</svg>
