<svg width="80" height="81" viewBox="0 0 80 81" fill="none" xmlns="http://www.w3.org/2000/svg">
<rect y="0.231201" width="80" height="80" rx="10" fill="#383E45"/>
<path d="M53 34.2512C51.5001 33.7346 50.1762 32.8058 49.18 31.5712C48.0821 30.1956 46.6841 29.0895 45.093 28.3372C43.5019 27.585 41.7598 27.2067 40 27.2312C37.6327 27.0635 35.2892 27.7937 33.436 29.2762C31.5829 30.7587 30.3561 32.8849 30 35.2312C30.7013 34.0577 31.7569 33.1369 33.0148 32.6014C34.2727 32.0659 35.668 31.9433 37 32.2512C38.4974 32.7828 39.8192 33.717 40.82 34.9512C41.9239 36.3157 43.3246 37.4105 44.9153 38.1522C46.5061 38.8938 48.2451 39.2629 50 39.2312C52.3673 39.3988 54.7108 38.6687 56.564 37.1862C58.4171 35.7036 59.6439 33.5775 60 31.2312C59.3114 32.4187 58.2592 33.3534 56.9987 33.8972C55.7383 34.441 54.3364 34.5651 53 34.2512ZM27 44.2112C28.4999 44.7278 29.8238 45.6566 30.82 46.8912C31.9179 48.2667 33.3159 49.3729 34.907 50.1251C36.4981 50.8774 38.2402 51.2557 40 51.2312C42.3673 51.3988 44.7108 50.6687 46.564 49.1862C48.4171 47.7036 49.6439 45.5775 50 43.2312C49.2987 44.4047 48.2431 45.3254 46.9852 45.8609C45.7273 46.3964 44.332 46.5191 43 46.2112C41.5026 45.6796 40.1808 44.7453 39.18 43.5112C38.0731 42.15 36.6719 41.0577 35.0818 40.3163C33.4917 39.575 31.7542 39.2039 30 39.2312C27.6327 39.0635 25.2892 39.7937 23.436 41.2762C21.5829 42.7587 20.3561 44.8849 20 47.2312C20.6886 46.0436 21.7408 45.109 23.0013 44.5652C24.2617 44.0214 25.6636 43.8973 27 44.2112Z" fill="#33A9DC"/>
</svg>
