<svg width="80" height="81" viewBox="0 0 80 81" fill="none" xmlns="http://www.w3.org/2000/svg">
<rect y="0.231201" width="80" height="80" rx="10" fill="#383E45"/>
<path d="M24.853 57.0327L21.484 19.2312H58.516L55.1425 57.0267L39.9775 61.2312L24.853 57.0327Z" fill="#1572B6"/>
<path d="M40 58.0182L52.255 54.6207L55.138 22.3227H40V58.0182Z" fill="#33A9DC"/>
<path d="M40 36.0177H46.135L46.558 31.2702H40V26.6337H51.625L51.514 27.8772L50.3755 40.6542H40V36.0177Z" fill="white"/>
<path d="M40.0285 48.0582L40.0075 48.0642L34.8445 46.6692L34.5145 42.9717H29.86L30.5095 50.2512L40.006 52.8882L40.0285 52.8822V48.0582Z" fill="#EBEBEB"/>
<path d="M45.7405 40.4577L45.1825 46.6662L40.012 48.0612V52.8852L49.516 50.2512L49.5865 49.4682L50.392 40.4577H45.7405Z" fill="white"/>
<path d="M40.0165 26.6337V31.2702H28.8175L28.7245 30.2277L28.513 27.8772L28.402 26.6337H40.0165ZM40 36.0177V40.6542H34.9015L34.8085 39.6117L34.5985 37.2612L34.4875 36.0177H40Z" fill="#EBEBEB"/>
</svg>
