<svg width="80" height="81" viewBox="0 0 80 81" fill="none" xmlns="http://www.w3.org/2000/svg">
<rect y="0.231201" width="80" height="80" rx="10" fill="#383E45"/>
<g clip-path="url(#clip0_204_13)">
<path d="M16 58.042C16 61.4605 18.7711 64.2312 22.1892 64.2312H57.8106C61.2293 64.2312 64 61.4601 64 58.042V22.4206C64 19.0019 61.2289 16.2312 57.8108 16.2312H22.1894C18.7707 16.2312 16 19.0023 16 22.4204V58.0418V58.042Z" fill="#563D7C"/>
<path d="M35.9046 37.4633V30.6659H41.8879C42.4579 30.6659 43.0073 30.7133 43.5364 30.8084C44.0655 30.9033 44.5337 31.0728 44.9408 31.3171C45.3477 31.5614 45.6734 31.9006 45.9177 32.3346C46.1618 32.7689 46.284 33.3252 46.284 34.0034C46.284 35.2246 45.9177 36.1066 45.1849 36.6492C44.4524 37.192 43.5162 37.4633 42.3764 37.4633H35.9046ZM29.514 25.7V54.7625H43.5975C44.9001 54.7625 46.1687 54.5997 47.4034 54.274C48.6381 53.9483 49.737 53.4464 50.7004 52.768C51.6636 52.0896 52.4303 51.2144 53.0001 50.1426C53.5701 49.0707 53.8549 47.8021 53.8549 46.3368C53.8549 44.5186 53.4139 42.9651 52.5321 41.6763C51.6501 40.3872 50.3136 39.485 48.5226 38.9693C49.8252 38.3453 50.809 37.5447 51.4739 36.5678C52.1385 35.591 52.471 34.37 52.471 32.9045C52.471 31.5477 52.2471 30.4081 51.7994 29.4854C51.3516 28.5629 50.7207 27.8234 49.9065 27.2671C49.0926 26.7108 48.1157 26.3105 46.9759 26.0663C45.8363 25.822 44.5744 25.7 43.1905 25.7H29.514ZM35.9046 49.7965V41.8186H42.8648C44.2487 41.8186 45.3614 42.1373 46.2027 42.7752C47.0438 43.4129 47.4645 44.4779 47.4645 45.9704C47.4645 46.7303 47.3355 47.3543 47.0777 47.8428C46.8199 48.3312 46.474 48.718 46.0397 49.0028C45.6057 49.2878 45.1035 49.4913 44.5337 49.6135C43.9637 49.7354 43.3669 49.7965 42.7427 49.7965H35.9046Z" fill="white"/>
</g>
<defs>
<clipPath id="clip0_204_13">
<rect width="48" height="48" fill="white" transform="translate(16 16.2312)"/>
</clipPath>
</defs>
</svg>
