<svg width="80" height="81" viewBox="0 0 80 81" fill="none" xmlns="http://www.w3.org/2000/svg">
<rect y="0.231201" width="80" height="80" rx="10" fill="#383E45"/>
<g clip-path="url(#clip0_204_5)">
<path d="M57.3027 42.9526C55.6328 42.9612 54.1814 43.3634 52.9662 43.9579C52.5201 43.0748 52.0743 42.2881 51.9957 41.7109C51.9081 41.0378 51.8033 40.6268 51.9081 39.8225C52.0131 39.0181 52.4853 37.8726 52.4765 37.7853C52.4678 37.6979 52.3715 37.2869 51.4098 37.2783C50.4481 37.2695 49.6175 37.4618 49.5213 37.7153C49.4251 37.9688 49.2415 38.5459 49.1191 39.1403C48.953 40.0148 47.1957 43.1359 46.1903 44.7709C45.8667 44.1329 45.587 43.5732 45.5257 43.1273C45.4383 42.4542 45.3333 42.0432 45.4383 41.2388C45.5433 40.4345 46.0154 39.2892 46.0066 39.2016C45.9978 39.1143 45.9016 38.7033 44.9399 38.6946C43.978 38.6858 43.1474 38.8782 43.0514 39.1317C42.9552 39.3854 42.8502 39.9798 42.6492 40.5569C42.448 41.134 40.1137 46.345 39.5016 47.6913C39.2543 48.2362 38.9949 48.7755 38.7235 49.3088C38.7235 49.3088 38.7147 49.3351 38.6885 49.3788C38.6032 49.546 38.5158 49.7121 38.4263 49.8771V49.8858C38.2951 50.122 38.1552 50.3404 38.0853 50.3404C38.0328 50.3404 37.9366 49.711 38.1027 48.8541C38.4524 47.0444 39.283 44.2291 39.2744 44.1329C39.2744 44.0804 39.4317 43.5908 38.7323 43.3371C38.0502 43.0836 37.8055 43.5033 37.7442 43.5033C37.6831 43.5033 37.6392 43.6519 37.6392 43.6519C37.6392 43.6519 38.4001 40.4869 36.188 40.4869C34.8067 40.4869 32.9005 41.9995 31.9563 43.3634C30.8829 43.9475 29.8104 44.5333 28.7388 45.1208C28.2232 45.4094 27.6897 45.6979 27.1913 45.9689C27.1563 45.934 27.1214 45.8901 27.0863 45.8553C24.4109 42.9963 19.4624 40.9765 19.6722 37.1384C19.751 35.7394 20.2317 32.0673 29.176 27.6083C36.5377 23.9798 42.3957 24.9852 43.4099 27.2148C44.8612 30.3974 40.2711 36.3078 32.6645 37.1644C29.7618 37.4881 28.2404 36.3689 27.8558 35.9493C27.4536 35.512 27.3923 35.4858 27.2436 35.5733C26.999 35.7046 27.1563 36.0979 27.2436 36.3252C27.4711 36.9196 28.4065 37.9688 29.989 38.4848C31.388 38.9393 34.789 39.193 38.9071 37.6017C43.5147 35.818 47.117 30.8607 46.0591 26.7078C45.001 22.4935 38.0065 21.1034 31.388 23.4552C27.4536 24.8543 23.1869 27.0575 20.1181 29.9253C16.4721 33.335 15.895 36.299 16.1311 37.5406C16.9793 41.947 23.0558 44.8148 25.4864 46.9394C25.364 47.0093 25.2501 47.0706 25.1542 47.1231C23.9388 47.7263 19.3049 50.1481 18.1508 52.7099C16.8395 55.6126 18.3608 57.6936 19.3662 57.9732C22.4875 58.8389 25.6962 57.2826 27.4186 54.712C29.141 52.1416 28.9311 48.8016 28.1356 47.2716C28.1268 47.2542 28.1182 47.2366 28.1005 47.2191C28.4153 47.0356 28.7388 46.8432 29.0536 46.6596C29.6322 46.3176 30.2181 45.9881 30.811 45.6715C30.5136 46.4847 30.295 47.4552 30.1902 48.8541C30.059 50.4979 30.7321 52.6311 31.6152 53.4704C32.0088 53.8379 32.4721 53.8465 32.7695 53.8465C33.8011 53.8465 34.2646 52.9896 34.7804 51.9754C35.4098 50.734 35.9781 49.2914 35.9781 49.2914C35.9781 49.2914 35.27 53.1908 37.1935 53.1908C37.8929 53.1908 38.6011 52.2814 38.9159 51.8181V51.8268C38.9159 51.8268 38.9333 51.8005 38.9684 51.7394C39.0383 51.6258 39.082 51.5556 39.082 51.5556V51.5384C39.3618 51.0486 39.9914 49.9383 40.9268 48.0934C42.1334 45.7154 43.2963 42.7428 43.2963 42.7428C43.2963 42.7428 43.4013 43.4684 43.7596 44.6749C43.9696 45.3831 44.4065 46.1613 44.7563 46.9131C44.4766 47.3067 44.3017 47.5251 44.3017 47.5251L44.3105 47.5339C44.083 47.8311 43.8383 48.1546 43.5672 48.4696C42.6141 49.606 41.4777 50.9089 41.3202 51.2847C41.1365 51.7306 41.1803 52.0542 41.5302 52.3165C41.7837 52.5089 42.2382 52.5349 42.7017 52.5089C43.5586 52.4476 44.1618 52.2378 44.459 52.1067C44.9225 51.9406 45.4645 51.6869 45.9715 51.3109C46.9072 50.6202 47.4753 49.6323 47.423 48.3297C47.3967 47.6127 47.1607 46.8957 46.8721 46.2224C46.9597 46.1001 47.0382 45.9777 47.1258 45.8553C48.6033 43.6956 49.7487 41.3262 49.7487 41.3262C49.7487 41.3262 49.8537 42.0518 50.212 43.2586C50.387 43.8706 50.7455 44.5351 51.0601 45.1819C49.67 46.3099 48.8131 47.6213 48.5071 48.4782C47.9564 50.0695 48.3846 50.7863 49.1978 50.9524C49.565 51.0312 50.0896 50.8563 50.4743 50.6901C50.9639 50.5328 51.541 50.2619 52.0919 49.8595C53.0275 49.1689 53.9279 48.2071 53.8754 46.9045C53.8491 46.3099 53.6918 45.724 53.4732 45.1557C54.6535 44.6663 56.1749 44.3952 58.1157 44.6224C62.2776 45.112 63.0995 47.7087 62.942 48.8018C62.7846 49.8946 61.9103 50.4891 61.622 50.6727C61.3332 50.8564 61.2372 50.9176 61.2635 51.0486C61.2983 51.241 61.4382 51.2324 61.6831 51.1973C62.0242 51.1362 63.869 50.3142 63.9475 48.3033C64.0788 45.7328 61.6306 42.9263 57.3027 42.9526ZM25.1978 53.7766C23.8163 55.2803 21.893 55.8486 21.0623 55.3679C20.1706 54.8519 20.5203 52.6311 22.2164 51.04C23.248 50.0695 24.577 49.1688 25.4601 48.6181C25.6611 48.4956 25.9585 48.3209 26.317 48.1023C26.3781 48.0672 26.4132 48.0498 26.4132 48.0498L26.623 47.9185C27.2436 50.1918 26.6493 52.1941 25.1978 53.7766ZM35.2525 46.9394C34.7716 48.1111 33.7662 51.1099 33.1542 50.9438C32.6296 50.8039 32.306 48.5307 33.0492 46.2837C33.4251 45.1557 34.2207 43.8093 34.6842 43.2848C35.4361 42.4454 36.2667 42.1654 36.4677 42.5067C36.7214 42.9526 35.5497 46.2049 35.2525 46.9394ZM43.5498 50.9088C43.3486 51.0138 43.1564 51.0837 43.0688 51.0312C43.0077 50.9961 43.1564 50.8563 43.1564 50.8563C43.1564 50.8563 44.1968 49.7373 44.6077 49.2301C44.8439 48.9329 45.1235 48.5832 45.4208 48.1896V48.3033C45.4208 49.6411 44.1267 50.5416 43.5496 50.9088H43.5498ZM49.9497 49.4487C49.801 49.3437 49.8273 48.994 50.3257 47.9011C50.518 47.4726 50.9725 46.7558 51.7508 46.0651C51.8382 46.3448 51.8995 46.6159 51.8907 46.8694C51.8819 48.5569 50.6755 49.1864 49.9497 49.4487Z" fill="#CD6799"/>
</g>
<defs>
<clipPath id="clip0_204_5">
<rect width="48" height="36" fill="white" transform="translate(16 22.2312)"/>
</clipPath>
</defs>
</svg>
