<svg width="80" height="81" viewBox="0 0 80 81" fill="none" xmlns="http://www.w3.org/2000/svg">
<rect y="0.231201" width="80" height="80" rx="10" fill="#383E45"/>
<g clip-path="url(#clip0_204_9)">
<path d="M32 64.2312C36.416 64.2312 40 60.6472 40 56.2312V48.2312H32C27.584 48.2312 24 51.8152 24 56.2312C24 60.6472 27.584 64.2312 32 64.2312Z" fill="#0ACF83"/>
<path d="M24 40.2312C24 35.8152 27.584 32.2312 32 32.2312H40V48.2312H32C27.584 48.2312 24 44.6472 24 40.2312Z" fill="#A259FF"/>
<path d="M24 24.2312C24 19.8152 27.584 16.2312 32 16.2312H40V32.2312H32C27.584 32.2312 24 28.6472 24 24.2312Z" fill="#F24E1E"/>
<path d="M40 16.2312H48C52.416 16.2312 56 19.8152 56 24.2312C56 28.6472 52.416 32.2312 48 32.2312H40V16.2312Z" fill="#FF7262"/>
<path d="M56 40.2312C56 44.6472 52.416 48.2312 48 48.2312C43.584 48.2312 40 44.6472 40 40.2312C40 35.8152 43.584 32.2312 48 32.2312C52.416 32.2312 56 35.8152 56 40.2312Z" fill="#1ABCFE"/>
</g>
<defs>
<clipPath id="clip0_204_9">
<rect width="32" height="48" fill="white" transform="translate(24 16.2312)"/>
</clipPath>
</defs>
</svg>
