<svg width="48" height="49" viewBox="0 0 48 49" fill="none" xmlns="http://www.w3.org/2000/svg">
<g clip-path="url(#clip0_6_191)">
<path fill-rule="evenodd" clip-rule="evenodd" d="M24 0.231201C10.74 0.231201 0 10.9712 0 24.2312C0 34.8512 6.87 43.8212 16.41 47.0012C17.61 47.2112 18.06 46.4912 18.06 45.8612C18.06 45.2912 18.03 43.4012 18.03 41.3912C12 42.5012 10.44 39.9212 9.96 38.5712C9.69 37.8812 8.52 35.7512 7.5 35.1812C6.66 34.7312 5.46 33.6212 7.47 33.5912C9.36 33.5612 10.71 35.3312 11.16 36.0512C13.32 39.6812 16.77 38.6612 18.15 38.0312C18.36 36.4712 18.99 35.4212 19.68 34.8212C14.34 34.2212 8.76 32.1512 8.76 22.9712C8.76 20.3612 9.69 18.2012 11.22 16.5212C10.98 15.9212 10.14 13.4612 11.46 10.1612C11.46 10.1612 13.47 9.5312 18.06 12.6212C19.98 12.0812 22.02 11.8112 24.06 11.8112C26.1 11.8112 28.14 12.0812 30.06 12.6212C34.65 9.5012 36.66 10.1612 36.66 10.1612C37.98 13.4612 37.14 15.9212 36.9 16.5212C38.43 18.2012 39.36 20.3312 39.36 22.9712C39.36 32.1812 33.75 34.2212 28.41 34.8212C29.28 35.5712 30.03 37.0112 30.03 39.2612C30.03 42.4712 30 45.0512 30 45.8612C30 46.4912 30.45 47.2412 31.65 47.0012C36.4144 45.3926 40.5544 42.3306 43.4873 38.2459C46.4203 34.1613 47.9986 29.2598 48 24.2312C48 10.9712 37.26 0.231201 24 0.231201Z" fill="white"/>
</g>
<defs>
<clipPath id="clip0_6_191">
<rect width="48" height="48" fill="white" transform="translate(0 0.231201)"/>
</clipPath>
</defs>
</svg>
