<svg width="48" height="49" viewBox="0 0 48 49" fill="none" xmlns="http://www.w3.org/2000/svg">
<path d="M37 19.2512C35.5001 18.7346 34.1762 17.8058 33.18 16.5712C32.0821 15.1956 30.6841 14.0895 29.093 13.3372C27.5019 12.585 25.7598 12.2067 24 12.2312C21.6327 12.0635 19.2892 12.7937 17.436 14.2762C15.5829 15.7587 14.3561 17.8848 14 20.2312C14.7013 19.0577 15.7569 18.1369 17.0148 17.6014C18.2727 17.0659 19.668 16.9433 21 17.2512C22.4974 17.7828 23.8192 18.717 24.82 19.9512C25.9239 21.3157 27.3246 22.4105 28.9153 23.1522C30.5061 23.8938 32.2451 24.2629 34 24.2312C36.3673 24.3988 38.7108 23.6687 40.564 22.1862C42.4171 20.7036 43.6439 18.5775 44 16.2312C43.3114 17.4187 42.2592 18.3534 40.9987 18.8972C39.7383 19.441 38.3364 19.5651 37 19.2512ZM11 29.2112C12.4999 29.7278 13.8238 30.6566 14.82 31.8912C15.9179 33.2667 17.3159 34.3729 18.907 35.1251C20.4981 35.8774 22.2402 36.2557 24 36.2312C26.3673 36.3988 28.7108 35.6687 30.564 34.1862C32.4171 32.7036 33.6439 30.5775 34 28.2312C33.2987 29.4047 32.2431 30.3254 30.9852 30.8609C29.7273 31.3964 28.332 31.5191 27 31.2112C25.5026 30.6796 24.1808 29.7453 23.18 28.5112C22.0731 27.15 20.6719 26.0577 19.0818 25.3163C17.4917 24.575 15.7542 24.2039 14 24.2312C11.6327 24.0635 9.28917 24.7937 7.43601 26.2762C5.58286 27.7587 4.35608 29.8849 4 32.2312C4.68861 31.0436 5.74082 30.109 7.00127 29.5652C8.26172 29.0214 9.66362 28.8973 11 29.2112Z" fill="#33A9DC"/>
</svg>
