<svg width="38" height="43" viewBox="0 0 38 43" fill="none" xmlns="http://www.w3.org/2000/svg">
<path d="M3.85298 38.0327L0.482483 0.231201H37.5175L34.1425 38.0267L18.9775 42.2312L3.85298 38.0327Z" fill="#E44F26"/>
<path d="M19 39.0182L31.255 35.6207L34.138 3.32269H19V39.0182Z" fill="#F1662A"/>
<path d="M19 17.3417H12.865L12.442 12.5942H19V7.9577H7.375L7.486 9.2027L8.6245 21.9782H19V17.3417V17.3417ZM19 29.3822L18.979 29.3882L13.816 27.9947L13.486 24.2972H8.8315L9.481 31.5752L18.979 34.2122L19 34.2062V29.3822Z" fill="#EBEBEB"/>
<path d="M18.9835 17.3417V21.9782H24.6925L24.1555 27.9917L18.9835 29.3867V34.2107L28.489 31.5752L28.558 30.7922L29.647 18.5867L29.761 17.3417H18.9835V17.3417ZM18.9835 7.9577V12.5942H30.1825L30.2755 11.5532L30.487 9.2027L30.598 7.9577H18.9835V7.9577Z" fill="white"/>
</svg>
