<svg width="38" height="43" viewBox="0 0 38 43" fill="none" xmlns="http://www.w3.org/2000/svg">
<path d="M3.85301 38.0327L0.484009 0.231201H37.516L34.1425 38.0267L18.9775 42.2312L3.85301 38.0327Z" fill="#1572B6"/>
<path d="M19 39.0182L31.255 35.6207L34.138 3.32269H19V39.0182Z" fill="#33A9DC"/>
<path d="M19 17.0177H25.135L25.558 12.2702H19V7.63373H30.625L30.514 8.87723L29.3755 21.6542H19V17.0177V17.0177Z" fill="white"/>
<path d="M19.0285 29.0582L19.0075 29.0642L13.8445 27.6692L13.5145 23.9717H8.85999L9.50949 31.2512L19.006 33.8882L19.0285 33.8822V29.0582V29.0582Z" fill="#EBEBEB"/>
<path d="M24.7405 21.4577L24.1825 27.6662L19.012 29.0612V33.8852L28.516 31.2512L28.5865 30.4682L29.392 21.4577H24.7405V21.4577Z" fill="white"/>
<path d="M19.0165 7.63373V12.2702H7.81748L7.72448 11.2277L7.51298 8.87723L7.40198 7.63373H19.0165V7.63373ZM19 17.0177V21.6542H13.9015L13.8085 20.6117L13.5985 18.2612L13.4875 17.0177H19V17.0177Z" fill="#EBEBEB"/>
</svg>
