<svg width="48" height="37" viewBox="0 0 48 37" fill="none" xmlns="http://www.w3.org/2000/svg">
<g clip-path="url(#clip0_6_179)">
<path d="M41.3027 20.9526C39.6328 20.9612 38.1814 21.3634 36.9662 21.9579C36.5201 21.0748 36.0743 20.2881 35.9957 19.7109C35.9082 19.0378 35.8033 18.6268 35.9081 17.8224C36.0131 17.0181 36.4853 15.8726 36.4765 15.7853C36.4678 15.6979 36.3715 15.2869 35.4098 15.2783C34.4481 15.2695 33.6175 15.4618 33.5213 15.7153C33.4251 15.9688 33.2415 16.5459 33.1191 17.1403C32.953 18.0148 31.1957 21.1359 30.1903 22.7709C29.8667 22.1329 29.587 21.5732 29.5257 21.1273C29.4383 20.4542 29.3333 20.0432 29.4383 19.2388C29.5433 18.4344 30.0154 17.2892 30.0066 17.2016C29.9978 17.1143 29.9016 16.7033 28.9399 16.6946C27.978 16.6858 27.1474 16.8782 27.0514 17.1317C26.9552 17.3854 26.8502 17.9798 26.6492 18.5569C26.448 19.134 24.1137 24.345 23.5017 25.6913C23.2543 26.2362 22.9949 26.7755 22.7235 27.3088C22.7235 27.3088 22.7147 27.3351 22.6885 27.3788C22.6032 27.546 22.5158 27.7121 22.4263 27.8771V27.8858C22.2951 28.122 22.1552 28.3404 22.0853 28.3404C22.0328 28.3404 21.9366 27.711 22.1027 26.8541C22.4524 25.0444 23.283 22.2291 23.2744 22.1329C23.2744 22.0804 23.4317 21.5908 22.7323 21.3371C22.0502 21.0836 21.8055 21.5033 21.7442 21.5033C21.6831 21.5033 21.6392 21.6519 21.6392 21.6519C21.6392 21.6519 22.4001 18.4869 20.188 18.4869C18.8066 18.4869 16.9005 19.9995 15.9563 21.3634C14.8829 21.9475 13.8104 22.5333 12.7388 23.1208C12.2232 23.4094 11.6897 23.6979 11.1913 23.9689C11.1563 23.934 11.1214 23.8901 11.0863 23.8553C8.4109 20.9963 3.4624 18.9765 3.67221 15.1384C3.75096 13.7394 4.23171 10.0673 13.176 5.60833C20.5377 1.97983 26.3957 2.9852 27.4099 5.21476C28.8612 8.39739 24.2711 14.3078 16.6645 15.1644C13.7618 15.4881 12.2404 14.3689 11.8558 13.9493C11.4536 13.512 11.3923 13.4858 11.2436 13.5733C10.999 13.7046 11.1563 14.098 11.2436 14.3252C11.4711 14.9196 12.4065 15.9688 13.989 16.4848C15.388 16.9393 18.789 17.193 22.9071 15.6017C27.5147 13.818 31.117 8.8607 30.0591 4.70776C29.001 0.493514 22.0065 -0.89661 15.388 1.4552C11.4536 2.85433 7.1869 5.05745 4.11809 7.92526C0.472149 11.335 -0.104976 14.299 0.131087 15.5406C0.979337 19.947 7.05584 22.8148 9.4864 24.9394C9.36396 25.0093 9.25015 25.0706 9.15415 25.1231C7.93877 25.7263 3.3049 28.1481 2.15084 30.7099C0.839462 33.6126 2.36084 35.6936 3.36621 35.9732C6.48752 36.8389 9.69621 35.2826 11.4186 32.712C13.141 30.1416 12.9311 26.8016 12.1356 25.2716C12.1268 25.2542 12.1182 25.2366 12.1005 25.2191C12.4153 25.0356 12.7388 24.8432 13.0536 24.6596C13.6322 24.3176 14.2181 23.9881 14.811 23.6715C14.5136 24.4847 14.295 25.4552 14.1902 26.8541C14.059 28.4979 14.7321 30.6311 15.6152 31.4704C16.0088 31.8379 16.4721 31.8465 16.7695 31.8465C17.8011 31.8465 18.2646 30.9896 18.7804 29.9754C19.4098 28.734 19.9782 27.2914 19.9782 27.2914C19.9782 27.2914 19.27 31.1908 21.1935 31.1908C21.8929 31.1908 22.6011 30.2814 22.9159 29.8181V29.8268C22.9159 29.8268 22.9333 29.8005 22.9684 29.7394C23.0383 29.6258 23.082 29.5556 23.082 29.5556V29.5384C23.3618 29.0486 23.9914 27.9383 24.9268 26.0934C26.1334 23.7154 27.2963 20.7428 27.2963 20.7428C27.2963 20.7428 27.4013 21.4684 27.7596 22.6749C27.9696 23.3831 28.4065 24.1613 28.7563 24.9131C28.4766 25.3067 28.3017 25.5251 28.3017 25.5251L28.3105 25.5339C28.083 25.8311 27.8383 26.1546 27.5672 26.4696C26.6141 27.606 25.4777 28.9089 25.3202 29.2847C25.1365 29.7306 25.1803 30.0542 25.5302 30.3165C25.7837 30.5089 26.2382 30.5349 26.7017 30.5089C27.5586 30.4476 28.1618 30.2378 28.459 30.1067C28.9225 29.9406 29.4645 29.6869 29.9715 29.3109C30.9072 28.6202 31.4753 27.6323 31.423 26.3297C31.3967 25.6127 31.1606 24.8957 30.8721 24.2224C30.9596 24.1001 31.0382 23.9777 31.1258 23.8553C32.6033 21.6956 33.7487 19.3262 33.7487 19.3262C33.7487 19.3262 33.8537 20.0518 34.212 21.2586C34.387 21.8706 34.7455 22.5351 35.0601 23.1819C33.67 24.3099 32.8131 25.6213 32.5071 26.4782C31.9564 28.0695 32.3846 28.7863 33.1978 28.9524C33.565 29.0312 34.0896 28.8563 34.4743 28.6901C34.9639 28.5328 35.541 28.2619 36.0919 27.8595C37.0275 27.1689 37.9279 26.2071 37.8754 24.9045C37.8491 24.3099 37.6918 23.724 37.4732 23.1557C38.6535 22.6663 40.1749 22.3952 42.1157 22.6224C46.2777 23.112 47.0995 25.7087 46.942 26.8018C46.7846 27.8946 45.9103 28.4891 45.622 28.6727C45.3332 28.8564 45.2372 28.9176 45.2635 29.0486C45.2983 29.241 45.4382 29.2324 45.6831 29.1973C46.0242 29.1362 47.869 28.3142 47.9475 26.3033C48.0788 23.7328 45.6306 20.9263 41.3027 20.9526V20.9526ZM9.19784 31.7766C7.81634 33.2803 5.89296 33.8486 5.06234 33.3679C4.17059 32.8519 4.52027 30.6311 6.2164 29.04C7.24802 28.0695 8.57702 27.1688 9.46015 26.6181C9.66115 26.4956 9.95852 26.3209 10.317 26.1023C10.3781 26.0672 10.4132 26.0498 10.4132 26.0498L10.623 25.9185C11.2436 28.1918 10.6493 30.1941 9.19784 31.7766V31.7766ZM19.2525 24.9394C18.7716 26.1111 17.7662 29.1099 17.1542 28.9438C16.6296 28.8039 16.306 26.5307 17.0492 24.2837C17.4251 23.1557 18.2207 21.8093 18.6842 21.2848C19.4361 20.4454 20.2667 20.1654 20.4677 20.5067C20.7214 20.9526 19.5497 24.2049 19.2525 24.9394V24.9394ZM27.5498 28.9088C27.3486 29.0138 27.1564 29.0837 27.0688 29.0312C27.0077 28.9961 27.1564 28.8563 27.1564 28.8563C27.1564 28.8563 28.1968 27.7373 28.6077 27.2301C28.8439 26.9329 29.1235 26.5832 29.4208 26.1896V26.3033C29.4208 27.6411 28.1267 28.5416 27.5496 28.9088H27.5498ZM33.9497 27.4487C33.801 27.3437 33.8273 26.994 34.3257 25.9011C34.518 25.4726 34.9725 24.7558 35.7508 24.0651C35.8382 24.3448 35.8995 24.6159 35.8907 24.8694C35.8819 26.5569 34.6755 27.1864 33.9497 27.4487Z" fill="#CD6799"/>
</g>
<defs>
<clipPath id="clip0_6_179">
<rect width="48" height="36" fill="white" transform="translate(0 0.231201)"/>
</clipPath>
</defs>
</svg>
