<svg width="48" height="49" viewBox="0 0 48 49" fill="none" xmlns="http://www.w3.org/2000/svg">
<g clip-path="url(#clip0_6_170)">
<path d="M0 0.231201H48V48.2312H0V0.231201Z" fill="#F7DF1E"/>
<path d="M12.621 40.3435L16.2942 38.1205C17.0029 39.3769 17.6475 40.44 19.1938 40.44C20.676 40.44 21.6107 39.8603 21.6107 37.605V22.2679H26.1214V37.6688C26.1214 42.3407 23.3828 44.4673 19.3872 44.4673C15.7787 44.4673 13.6842 42.5985 12.6208 40.3431L12.621 40.3435ZM28.5715 39.8601L32.2442 37.7336C33.2112 39.3126 34.4678 40.4724 36.6908 40.4724C38.56 40.4724 39.7517 39.5379 39.7517 38.2491C39.7517 36.7026 38.5273 36.1547 36.4652 35.2528L35.3378 34.7691C32.0833 33.384 29.9247 31.644 29.9247 27.9709C29.9247 24.5876 32.5022 22.0099 36.5299 22.0099C39.3975 22.0099 41.4597 23.0089 42.9417 25.6187L39.4294 27.8743C38.656 26.4889 37.8186 25.9412 36.5297 25.9412C35.2086 25.9412 34.3708 26.7789 34.3708 27.8743C34.3708 29.2275 35.2086 29.7756 37.1417 30.6133L38.2693 31.0965C42.1037 32.74 44.2624 34.4153 44.2624 38.1848C44.2624 42.2449 41.0727 44.4679 36.7873 44.4679C32.5988 44.4679 29.8922 42.4703 28.5713 39.8603" fill="black"/>
</g>
<defs>
<clipPath id="clip0_6_170">
<rect width="48" height="48" fill="white" transform="translate(0 0.231201)"/>
</clipPath>
</defs>
</svg>
