<svg width="48" height="49" viewBox="0 0 48 49" fill="none" xmlns="http://www.w3.org/2000/svg">
<g clip-path="url(#clip0_6_176)">
<path d="M0 42.042C0 45.4605 2.77106 48.2312 6.18919 48.2312H41.8106C45.2293 48.2312 48 45.4601 48 42.042V6.42058C48 3.00189 45.2289 0.231201 41.8108 0.231201H6.18937C2.77069 0.231201 0 3.00226 0 6.42039V42.0418V42.042Z" fill="#563D7C"/>
<path d="M19.9046 21.4633V14.6659H25.8879C26.4579 14.6659 27.0073 14.7133 27.5364 14.8084C28.0655 14.9033 28.5337 15.0728 28.9408 15.3171C29.3477 15.5614 29.6734 15.9006 29.9177 16.3346C30.1618 16.7689 30.284 17.3252 30.284 18.0034C30.284 19.2246 29.9177 20.1066 29.1849 20.6492C28.4524 21.192 27.5162 21.4633 26.3764 21.4633H19.9046V21.4633ZM13.514 9.69995V38.7625H27.5975C28.9001 38.7625 30.1687 38.5997 31.4034 38.274C32.6381 37.9483 33.737 37.4464 34.7004 36.768C35.6636 36.0896 36.4303 35.2144 37.0001 34.1426C37.5701 33.0707 37.8549 31.8021 37.8549 30.3368C37.8549 28.5186 37.4139 26.9651 36.5321 25.6763C35.6501 24.3872 34.3136 23.485 32.5226 22.9693C33.8252 22.3453 34.809 21.5447 35.4739 20.5678C36.1385 19.591 36.471 18.37 36.471 16.9045C36.471 15.5477 36.2471 14.4081 35.7993 13.4854C35.3516 12.5629 34.7207 11.8234 33.9065 11.2671C33.0926 10.7108 32.1157 10.3105 30.9759 10.0663C29.8363 9.82201 28.5744 9.69995 27.1905 9.69995H13.514V9.69995ZM19.9046 33.7965V25.8186H26.8648C28.2487 25.8186 29.3613 26.1373 30.2027 26.7752C31.0438 27.4129 31.4645 28.4779 31.4645 29.9704C31.4645 30.7303 31.3355 31.3543 31.0777 31.8428C30.8199 32.3312 30.474 32.718 30.0397 33.0028C29.6057 33.2878 29.1035 33.4913 28.5337 33.6135C27.9637 33.7354 27.3669 33.7965 26.7427 33.7965H19.9046V33.7965Z" fill="white"/>
</g>
<defs>
<clipPath id="clip0_6_176">
<rect width="48" height="48" fill="white" transform="translate(0 0.231201)"/>
</clipPath>
</defs>
</svg>
