<svg width="49" height="49" viewBox="0 0 49 49" fill="none" xmlns="http://www.w3.org/2000/svg">
<g clip-path="url(#clip0_6_185)">
<path d="M23.8901 0.244751C11.6864 0.244751 12.4484 5.53698 12.4484 5.53698L12.462 11.0199H24.1077V12.666H7.83647C7.83647 12.666 0.0273438 11.7804 0.0273438 24.0938C0.0273438 36.4076 6.84334 35.9709 6.84334 35.9709H10.9111V30.2568C10.9111 30.2568 10.6918 23.4408 17.6183 23.4408H29.1688C29.1688 23.4408 35.6582 23.5456 35.6582 17.169V6.62555C35.6582 6.62555 36.6438 0.244751 23.8901 0.244751ZM17.4687 3.9319C17.7439 3.93166 18.0164 3.98568 18.2707 4.09088C18.525 4.19607 18.7561 4.35039 18.9506 4.54498C19.1452 4.73957 19.2995 4.97063 19.4047 5.22492C19.5099 5.47922 19.564 5.75176 19.5637 6.02696C19.564 6.30216 19.5099 6.5747 19.4047 6.829C19.2995 7.08329 19.1452 7.31435 18.9506 7.50894C18.7561 7.70354 18.525 7.85785 18.2707 7.96305C18.0164 8.06825 17.7439 8.12227 17.4687 8.12202C17.1935 8.12227 16.9209 8.06825 16.6666 7.96305C16.4123 7.85785 16.1813 7.70354 15.9867 7.50894C15.7921 7.31435 15.6378 7.08329 15.5326 6.829C15.4274 6.5747 15.3734 6.30216 15.3736 6.02696C15.3734 5.75176 15.4274 5.47922 15.5326 5.22492C15.6378 4.97063 15.7921 4.73957 15.9867 4.54498C16.1813 4.35039 16.4123 4.19607 16.6666 4.09088C16.9209 3.98568 17.1935 3.93166 17.4687 3.9319V3.9319Z" fill="url(#paint0_linear_6_185)"/>
<path d="M24.2366 48.0667C36.4403 48.0667 35.6783 42.7744 35.6783 42.7744L35.6648 37.2917H24.0188V35.6456H40.2901C40.2901 35.6456 48.0992 36.5312 48.0992 24.2174C48.0992 11.9038 41.2832 12.3405 41.2832 12.3405H37.2154V18.0544C37.2154 18.0544 37.4347 24.8704 30.5082 24.8704H18.9577C18.9577 24.8704 12.4683 24.7656 12.4683 31.1424V41.686C12.4683 41.686 11.4829 48.0667 24.2364 48.0667H24.2366ZM30.6581 44.3799C30.3829 44.3801 30.1103 44.3261 29.856 44.2209C29.6017 44.1157 29.3707 43.9614 29.1761 43.7668C28.9815 43.5722 28.8272 43.3411 28.722 43.0869C28.6168 42.8326 28.5628 42.56 28.563 42.2848C28.5627 42.0096 28.6168 41.737 28.7219 41.4827C28.8271 41.2284 28.9814 40.9973 29.176 40.8027C29.3706 40.6081 29.6017 40.4538 29.856 40.3486C30.1103 40.2433 30.3829 40.1893 30.6581 40.1896C30.9333 40.1893 31.2058 40.2433 31.4601 40.3485C31.7144 40.4537 31.9455 40.6081 32.1401 40.8026C32.3347 40.9972 32.489 41.2283 32.5942 41.4826C32.6994 41.7369 32.7534 42.0094 32.7531 42.2846C32.7534 42.5598 32.6994 42.8324 32.5942 43.0867C32.489 43.341 32.3347 43.572 32.1401 43.7666C31.9455 43.9612 31.7144 44.1155 31.4601 44.2207C31.2058 44.3259 30.9333 44.3799 30.6581 44.3797V44.3799Z" fill="url(#paint1_linear_6_185)"/>
</g>
<defs>
<linearGradient id="paint0_linear_6_185" x1="4.64704" y1="4.54605" x2="28.47" y2="28.1314" gradientUnits="userSpaceOnUse">
<stop stop-color="#387EB8"/>
<stop offset="1" stop-color="#366994"/>
</linearGradient>
<linearGradient id="paint1_linear_6_185" x1="19.2695" y1="19.6911" x2="44.8527" y2="43.8757" gradientUnits="userSpaceOnUse">
<stop stop-color="#FFE052"/>
<stop offset="1" stop-color="#FFC331"/>
</linearGradient>
<clipPath id="clip0_6_185">
<rect width="48.1882" height="48" fill="white" transform="translate(0 0.231201)"/>
</clipPath>
</defs>
</svg>
