<svg width="32" height="49" viewBox="0 0 32 49" fill="none" xmlns="http://www.w3.org/2000/svg">
<g clip-path="url(#clip0_6_193)">
<path d="M8 48.2312C12.416 48.2312 16 44.6472 16 40.2312V32.2312H8C3.584 32.2312 0 35.8152 0 40.2312C0 44.6472 3.584 48.2312 8 48.2312Z" fill="#0ACF83"/>
<path d="M0 24.2312C0 19.8152 3.584 16.2312 8 16.2312H16V32.2312H8C3.584 32.2312 0 28.6472 0 24.2312Z" fill="#A259FF"/>
<path d="M0 8.2312C0 3.8152 3.584 0.231201 8 0.231201H16V16.2312H8C3.584 16.2312 0 12.6472 0 8.2312Z" fill="#F24E1E"/>
<path d="M16 0.231201H24C28.416 0.231201 32 3.8152 32 8.2312C32 12.6472 28.416 16.2312 24 16.2312H16V0.231201Z" fill="#FF7262"/>
<path d="M32 24.2312C32 28.6472 28.416 32.2312 24 32.2312C19.584 32.2312 16 28.6472 16 24.2312C16 19.8152 19.584 16.2312 24 16.2312C28.416 16.2312 32 19.8152 32 24.2312Z" fill="#1ABCFE"/>
</g>
<defs>
<clipPath id="clip0_6_193">
<rect width="32" height="48" fill="white" transform="translate(0 0.231201)"/>
</clipPath>
</defs>
</svg>
