<svg width="48" height="49" viewBox="0 0 48 49" fill="none" xmlns="http://www.w3.org/2000/svg">
<g clip-path="url(#clip0_6_182)">
<path d="M0 24.2312V48.2312H48V0.231201H0V24.2312Z" fill="#007ACC"/>
<path d="M10.6147 24.3906L10.5995 26.3561H16.847V44.1086H21.266V26.3561H27.5137V24.4286C27.5137 23.3618 27.4909 22.4704 27.4605 22.4475C27.4376 22.4171 23.6355 22.4018 19.0262 22.4094L10.6374 22.4323L10.6147 24.3904V24.3906ZM38.7313 22.3764C39.9502 22.6811 40.8799 23.2221 41.7332 24.1059C42.1751 24.5784 42.8302 25.4393 42.8837 25.6449C42.8987 25.7059 40.8112 27.1078 39.5465 27.8927C39.5008 27.9231 39.3178 27.7251 39.1121 27.4202C38.495 26.5211 37.8474 26.1326 36.8569 26.064C35.4019 25.965 34.4645 26.7268 34.4722 27.9992C34.4722 28.3727 34.5255 28.5936 34.6779 28.8983C34.998 29.5613 35.5922 29.9574 37.4589 30.765C40.895 32.2431 42.3654 33.2183 43.2799 34.605C44.3008 36.1517 44.5294 38.6203 43.836 40.4565C43.0742 42.4526 41.1847 43.8088 38.5254 44.2583C37.7027 44.403 35.7523 44.3801 34.8684 44.2202C32.9409 43.8774 31.1122 42.9249 29.9846 41.6754C29.5427 41.1879 28.6817 39.9154 28.7351 39.8241C28.758 39.7935 28.956 39.6716 29.1769 39.5421C29.3902 39.4202 30.198 38.9554 30.9598 38.5136L32.3389 37.7136L32.6284 38.1403C33.0322 38.7572 33.9159 39.603 34.4494 39.885C35.9807 40.6926 38.0837 40.5784 39.1198 39.6488C39.5617 39.2451 39.7445 38.826 39.7445 38.2088C39.7445 37.6526 39.6759 37.4089 39.3864 36.9898C39.0133 36.4564 38.2513 36.0069 36.0874 35.0698C33.6112 34.0029 32.5445 33.3403 31.5694 32.2888C31.0055 31.6794 30.4721 30.7041 30.2512 29.8888C30.0684 29.2106 30.0225 27.5117 30.1674 26.826C30.678 24.4335 32.4836 22.7649 35.0893 22.2698C35.9349 22.1098 37.9007 22.1708 38.7313 22.3764V22.3764Z" fill="white"/>
</g>
<defs>
<clipPath id="clip0_6_182">
<rect width="48" height="48" fill="white" transform="translate(0 0.231201)"/>
</clipPath>
</defs>
</svg>
