<svg width="108" height="26" viewBox="0 0 108 26" fill="none" xmlns="http://www.w3.org/2000/svg">
<path d="M16.1165 7.54545V25H12.929L5.33523 14.0142H5.20739V25H1.51705V7.54545H4.75568L12.2898 18.5227H12.4432V7.54545H16.1165ZM35.2053 16.2727C35.2053 18.1761 34.8445 19.7955 34.1229 21.1307C33.407 22.4659 32.4297 23.4858 31.1911 24.1903C29.9581 24.8892 28.5717 25.2386 27.032 25.2386C25.4808 25.2386 24.0888 24.8864 22.8558 24.1818C21.6229 23.4773 20.6484 22.4574 19.9325 21.1222C19.2166 19.7869 18.8587 18.1705 18.8587 16.2727C18.8587 14.3693 19.2166 12.75 19.9325 11.4148C20.6484 10.0795 21.6229 9.0625 22.8558 8.36364C24.0888 7.65909 25.4808 7.30682 27.032 7.30682C28.5717 7.30682 29.9581 7.65909 31.1911 8.36364C32.4297 9.0625 33.407 10.0795 34.1229 11.4148C34.8445 12.75 35.2053 14.3693 35.2053 16.2727ZM31.4638 16.2727C31.4638 15.0398 31.2791 14 30.9098 13.1534C30.5462 12.3068 30.032 11.6648 29.3672 11.2273C28.7024 10.7898 27.924 10.571 27.032 10.571C26.1399 10.571 25.3615 10.7898 24.6967 11.2273C24.032 11.6648 23.5149 12.3068 23.1456 13.1534C22.782 14 22.6001 15.0398 22.6001 16.2727C22.6001 17.5057 22.782 18.5455 23.1456 19.392C23.5149 20.2386 24.032 20.8807 24.6967 21.3182C25.3615 21.7557 26.1399 21.9744 27.032 21.9744C27.924 21.9744 28.7024 21.7557 29.3672 21.3182C30.032 20.8807 30.5462 20.2386 30.9098 19.392C31.2791 18.5455 31.4638 17.5057 31.4638 16.2727ZM47.4077 12.5653C47.3395 11.8778 47.0469 11.3437 46.5298 10.9631C46.0128 10.5824 45.3111 10.392 44.4247 10.392C43.8224 10.392 43.3139 10.4773 42.8991 10.6477C42.4844 10.8125 42.1662 11.0426 41.9446 11.3381C41.7287 11.6335 41.6207 11.9688 41.6207 12.3438C41.6094 12.6562 41.6747 12.929 41.8168 13.1619C41.9645 13.3949 42.1662 13.5966 42.4219 13.767C42.6776 13.9318 42.973 14.0767 43.3082 14.2017C43.6435 14.321 44.0014 14.4233 44.3821 14.5085L45.9503 14.8835C46.7116 15.054 47.4105 15.2812 48.0469 15.5653C48.6832 15.8494 49.2344 16.1989 49.7003 16.6136C50.1662 17.0284 50.527 17.517 50.7827 18.0795C51.044 18.642 51.1776 19.2869 51.1832 20.0142C51.1776 21.0824 50.9048 22.0085 50.3651 22.7926C49.831 23.571 49.0582 24.1761 48.0469 24.608C47.0412 25.0341 45.8281 25.2472 44.4077 25.2472C42.9986 25.2472 41.7713 25.0312 40.7259 24.5994C39.6861 24.1676 38.8736 23.5284 38.2884 22.6818C37.7088 21.8295 37.4048 20.7756 37.3764 19.5199H40.9474C40.9872 20.1051 41.1548 20.5937 41.4503 20.9858C41.7514 21.3722 42.152 21.6648 42.652 21.8636C43.1577 22.0568 43.7287 22.1534 44.3651 22.1534C44.9901 22.1534 45.5327 22.0625 45.9929 21.8807C46.4588 21.6989 46.8196 21.446 47.0753 21.1222C47.331 20.7983 47.4588 20.4261 47.4588 20.0057C47.4588 19.6136 47.3423 19.2841 47.1094 19.017C46.8821 18.75 46.5469 18.5227 46.1037 18.3352C45.6662 18.1477 45.1293 17.9773 44.4929 17.8239L42.5923 17.3466C41.1207 16.9886 39.9588 16.429 39.1065 15.6676C38.2543 14.9062 37.831 13.8807 37.8366 12.5909C37.831 11.5341 38.1122 10.6108 38.6804 9.82102C39.2543 9.03125 40.0412 8.41477 41.0412 7.97159C42.0412 7.52841 43.1776 7.30682 44.4503 7.30682C45.7457 7.30682 46.8764 7.52841 47.8423 7.97159C48.8139 8.41477 49.5696 9.03125 50.1094 9.82102C50.6491 10.6108 50.9276 11.5256 50.9446 12.5653H47.4077ZM53.0007 10.5881V7.54545H67.3359V10.5881H61.9922V25H58.3445V10.5881H53.0007ZM69.6967 25V7.54545H76.5831C77.9013 7.54545 79.0263 7.78125 79.9581 8.25284C80.8956 8.71875 81.6087 9.38068 82.0973 10.2386C82.5916 11.0909 82.8388 12.0937 82.8388 13.2472C82.8388 14.4062 82.5888 15.4034 82.0888 16.2386C81.5888 17.0682 80.8643 17.7045 79.9155 18.1477C78.9723 18.5909 77.8303 18.8125 76.4893 18.8125H71.8786V15.8466H75.8928C76.5973 15.8466 77.1825 15.75 77.6484 15.5568C78.1143 15.3636 78.4609 15.0739 78.6882 14.6875C78.9212 14.3011 79.0376 13.821 79.0376 13.2472C79.0376 12.6676 78.9212 12.179 78.6882 11.7812C78.4609 11.3835 78.1115 11.0824 77.6399 10.8778C77.174 10.6676 76.5859 10.5625 75.8757 10.5625H73.3871V25H69.6967ZM79.1229 17.0568L83.4609 25H79.3871L75.1428 17.0568H79.1229ZM88.4553 25H84.5007L90.5263 7.54545H95.282L101.299 25H97.3445L92.9723 11.5341H92.8359L88.4553 25ZM88.2081 18.1392H97.549V21.0199H88.2081V18.1392Z" fill="white"/>
<path d="M105.751 25.2401C105.142 25.2401 104.619 25.0246 104.182 24.5938C103.751 24.1567 103.536 23.6335 103.536 23.0241C103.536 22.4209 103.751 21.9039 104.182 21.473C104.619 21.0421 105.142 20.8267 105.751 20.8267C106.342 20.8267 106.859 21.0421 107.303 21.473C107.746 21.9039 107.967 22.4209 107.967 23.0241C107.967 23.4304 107.863 23.8028 107.653 24.1413C107.45 24.4737 107.183 24.7415 106.85 24.9446C106.518 25.1416 106.152 25.2401 105.751 25.2401Z" fill="#FFB742"/>
</svg>
